<?xml version="1.0" encoding="UTF-8"?>
<svg version="1.1" xmlns="http://www.w3.org/2000/svg" width="512" height="512">
<path d="M0 0 C2.0234375 0.55859375 2.0234375 0.55859375 4 2 C5.21040332 4.44142178 6.21935705 6.77901165 7.1875 9.3125 C14.66290366 27.45654479 26.30097059 39.45413493 44.23046875 47.26513672 C56.8942825 52.52425363 71.4915806 50.90984687 84 46 C101.57077662 37.99746807 111.82547894 23.46906927 118.54296875 5.96875 C120.05161813 2.89482632 121.03085029 1.63246354 124 0 C127.92553267 -0.49961325 130.12248061 -0.54283758 133.51953125 1.55859375 C136.53609295 4.52765054 137.78839442 7.6231301 139.25 11.5 C146.63001639 29.55372958 159.3017305 40.55675732 177 48 C189.10866701 52.57144683 203.23800544 50.58760663 215 46 C230.8238535 38.5945266 240.80037414 25.42477983 248 10 C251.62356542 2.25095639 251.62356542 2.25095639 255 0 C258.97428265 -0.44158696 261.17935784 -0.53298156 264.57421875 1.671875 C267.26453953 4.25388979 268.18293762 6.14163632 269.4375 9.625 C275.78091158 25.8075732 286.58123627 38.39556878 302.3671875 45.90234375 C309.62217739 48.92705022 316.75898303 50.3108195 324.58984375 50.69140625 C327.18583379 51.02379395 328.80244837 51.59033945 331 53 C333.47526759 56.71290138 333.75322402 59.69825393 333 64 C331.3125 67 331.3125 67 328 69 C311.83301135 71.71451667 294.1980026 64.9120705 281 56 C273.83804597 50.57740548 267.65127407 43.95783605 262 37 C261.195625 36.01 260.39125 35.02 259.5625 34 C259.046875 33.34 258.53125 32.68 258 32 C257.70609375 32.51046875 257.4121875 33.0209375 257.109375 33.546875 C246.97248873 49.97562171 231.30939985 61.31117864 213 67 C212.21882813 67.24492187 211.43765625 67.48984375 210.6328125 67.7421875 C191.03815716 72.69170252 170.90457245 67.87411384 153.75537109 58.06884766 C149.47006227 55.45951775 145.6907663 52.38205909 142 49 C141.36835938 48.43667969 140.73671875 47.87335938 140.0859375 47.29296875 C135.26842726 42.76196242 131.63911955 37.49739337 128 32 C127.21689453 32.99966797 127.21689453 32.99966797 126.41796875 34.01953125 C112.88402516 50.96658846 97.14753178 65.00637861 74.96875 68.71484375 C52.89663437 70.83492854 32.74192691 66.53708385 15.0625 52.625 C8.13668577 46.58577344 1.77236623 39.884779 -3 32 C-3.49628906 32.6290625 -3.99257812 33.258125 -4.50390625 33.90625 C-6.65468872 36.61615429 -8.82561653 39.30900769 -11 42 C-11.56203125 42.71414063 -12.1240625 43.42828125 -12.703125 44.1640625 C-24.95754954 59.09542444 -43.83462841 67.31495871 -62.7265625 69.4140625 C-67.77275833 69.63049076 -70.93778978 69.64133447 -75.3125 67 C-77.65990923 62.82682804 -77.67921978 60.75453845 -77 56 C-75.12984906 53.56880377 -73.71861655 52.35930827 -71 51 C-68.73145711 50.73000524 -66.46003362 50.48404054 -64.1875 50.25 C-52.25125582 48.79443056 -42.41437931 44.49340141 -33 37 C-31.50919922 35.83210938 -31.50919922 35.83210938 -29.98828125 34.640625 C-21.79041662 27.39649887 -16.9321856 17.45466822 -12.65087891 7.56152344 C-9.674188 0.78416591 -7.36185532 -0.51662143 0 0 Z " fill="#39393B" transform="translate(128,358)"/>
<path d="M0 0 C3.08949282 3.27532698 4.75857156 6.43221853 6.3125 10.625 C13.02168932 27.21499541 24.04937926 38.33780805 40 46 C53.38748567 51.58782011 67.9261921 50.79832101 81.3359375 45.7421875 C99.77871653 37.06602153 108.98879788 23.10201267 117.1875 5.25 C119.14631234 1.73764684 120.22225762 0.34919371 124 -1 C128.29982301 -0.82449702 130.86218175 0.08765372 134 3 C135.203125 5.71484375 135.203125 5.71484375 136.25 8.9375 C141.82145789 24.17857021 152.44521679 36.69965132 167 44 C167.75539063 44.38929688 168.51078125 44.77859375 169.2890625 45.1796875 C182.10953286 51.05394984 195.71552371 50.90801122 209 47 C226.84642548 40.21835832 237.31378474 27.38406863 245.23828125 10.63671875 C249.73427544 1.20425679 249.73427544 1.20425679 255 -1 C258.47511551 -0.92907928 260.30644688 -0.56806588 263.0078125 1.64453125 C265.40540715 4.47933434 266.48078993 7.16332138 267.8125 10.625 C270.42633986 17.09307473 273.69412732 22.5215899 278 28 C278.70576172 28.95132813 278.70576172 28.95132813 279.42578125 29.921875 C283.46902011 35.06988617 288.4787711 38.55541242 294 42 C295.14082031 42.71542969 295.14082031 42.71542969 296.3046875 43.4453125 C303.753206 47.63353671 311.68461997 48.64167614 320 50 C327.10844406 51.2756108 327.10844406 51.2756108 330 53.625 C331.47697697 57.1328203 331.66865772 60.25705388 331 64 C328.93214742 67.36026044 327.43455276 67.88733817 323.625 68.875 C304.65520267 70.3206537 285.81054748 61.52678783 271.69287109 49.49462891 C265.94966688 44.34001942 261.42773188 38.28677958 257 32 C254.14644418 34.74646873 251.70624168 37.59849103 249.3125 40.75 C237.26638295 55.85193351 220.70715338 65.32826963 201.625 68.375 C182.67241907 70.39373406 162.79371991 66.73366509 147.421875 54.77197266 C128.18129735 38.74014233 128.18129735 38.74014233 127 31 C124.16631045 33.72758224 121.74664115 36.55390606 119.375 39.6875 C106.98487825 55.22649247 90.29646326 65.23417813 70.625 68.375 C50.35285517 70.5342874 31.91702622 65.98044978 15.4375 53.75 C8.05560465 47.75966481 1.05862299 41.09379679 -4 33 C-4 32.34 -4 31.68 -4 31 C-6.69242491 33.59877534 -9.02373675 36.24562533 -11.25 39.25 C-21.52308982 52.4860652 -34.077936 60.87987901 -50 66 C-51.03833984 66.34998047 -51.03833984 66.34998047 -52.09765625 66.70703125 C-58.84896005 68.69945424 -68.37559522 70.76418029 -74.80078125 67.63671875 C-77 66 -77 66 -79 64 C-79.79574267 57.06567106 -79.79574267 57.06567106 -77.0078125 53.33203125 C-73.14439514 50.33662844 -70.19064427 50.0080038 -65.4375 49.5 C-48.11080819 47.09007338 -34.68215457 38.97363131 -24 25 C-19.77975561 18.6821688 -16.42002691 12.23488862 -13.921875 5.05859375 C-12.9068274 2.79194084 -11.9193136 1.56300538 -10 0 C-6.16652698 -1.27782434 -3.91272241 -0.96101954 0 0 Z " fill="#39393B" transform="translate(130,222)"/>
<path d="M0 0 C3.02199047 0.68444314 4.10703389 2.06254139 6.03515625 4.4609375 C7.4921875 7.5625 7.4921875 7.5625 8.84765625 11.0859375 C11.4661216 17.55429553 14.70487807 22.99563045 19.03515625 28.4609375 C19.57914062 29.16863281 20.123125 29.87632813 20.68359375 30.60546875 C29.21625819 41.08101687 42.49779538 48.9379844 56.03515625 50.4609375 C70.89605995 51.46119063 84.78188494 48.60938744 96.765625 39.3515625 C99.2884554 37.13788379 101.6746688 34.84614209 104.03515625 32.4609375 C104.66035156 31.86925781 105.28554687 31.27757813 105.9296875 30.66796875 C112.84442533 23.59714203 116.50499976 13.96850035 120.58203125 5.09375 C122.03515625 2.4609375 122.03515625 2.4609375 125.03515625 0.4609375 C128.12284251 0.06252637 130.07832042 -0.16644613 133.03515625 0.4609375 C137.00981398 3.78855792 138.41820803 7.2453158 140.28515625 12.0234375 C147.15363207 29.26951698 159.47966695 40.41336824 176.26123047 47.72607422 C189.0201148 53.01154653 203.43716685 51.14476111 216.02734375 46.3125 C232.94048625 38.71256843 242.51274328 24.44087642 250.125 8.125 C252.74032409 2.65749227 252.74032409 2.65749227 256.03515625 0.4609375 C260.0094389 0.01935054 262.21451409 -0.07204406 265.609375 2.1328125 C268.29969578 4.71482729 269.21809387 6.60257382 270.47265625 10.0859375 C276.90277012 26.48969548 287.6395539 38.61710945 303.59765625 46.2734375 C310.11020173 49.06322173 316.24892575 50.34759523 323.28515625 50.8984375 C327.22586708 51.24164093 329.8772392 51.9142302 333.03515625 54.4609375 C334.6570564 57.70473781 334.57810405 60.95523754 334.03515625 64.4609375 C332.34765625 67.4609375 332.34765625 67.4609375 329.03515625 69.4609375 C312.47192538 72.20528514 294.52322782 64.63845067 281.08984375 55.4453125 C278.63605611 53.53931231 276.32232445 51.56299317 274.03515625 49.4609375 C273.3184375 48.81253906 272.60171875 48.16414063 271.86328125 47.49609375 C267.09601811 42.97077818 263.45723141 38.06069685 260.03515625 32.4609375 C259.4834375 33.16476563 258.93171875 33.86859375 258.36328125 34.59375 C254.16044208 39.76972978 249.62434442 44.62887223 245.03515625 49.4609375 C244.40867187 50.12738281 243.7821875 50.79382813 243.13671875 51.48046875 C229.60792821 64.55013744 210.11898635 70.18121722 191.69995117 69.92993164 C170.15249248 69.03163477 151.590889 58.96659699 137.09765625 43.2734375 C134.09492598 39.82406455 131.40229683 36.37186542 129.03515625 32.4609375 C128.50148437 33.13898438 127.9678125 33.81703125 127.41796875 34.515625 C113.64716209 51.71722086 97.77878067 65.78956277 75.16015625 69.17578125 C53.36208585 71.16485517 33.56351551 66.82996324 16.09765625 53.0859375 C9.17184202 47.04671094 2.80752248 40.3457165 -1.96484375 32.4609375 C-2.72667969 33.42193359 -2.72667969 33.42193359 -3.50390625 34.40234375 C-4.94074603 36.20781097 -6.38383405 38.00831746 -7.83203125 39.8046875 C-9.0421057 41.31173993 -10.24244829 42.82707539 -11.41015625 44.3671875 C-21.32756228 56.95694844 -37.54103613 65.19871085 -52.96484375 68.4609375 C-53.93421875 68.6878125 -54.90359375 68.9146875 -55.90234375 69.1484375 C-69.25806038 70.51126573 -69.25806038 70.51126573 -74.21484375 67.4609375 C-76.64772856 63.29027783 -76.64909146 61.25067149 -75.96484375 56.4609375 C-74.09469281 54.02974127 -72.6834603 52.82024577 -69.96484375 51.4609375 C-67.69630086 51.19094274 -65.42487737 50.94497804 -63.15234375 50.7109375 C-51.18420598 49.25147878 -41.436574 44.9149224 -31.96484375 37.4609375 C-31.13855469 36.8421875 -30.31226563 36.2234375 -29.4609375 35.5859375 C-21.88734955 29.13831333 -17.11660022 20.4817026 -13.25390625 11.46875 C-8.49301869 0.36001235 -8.49301869 0.36001235 0 0 Z " fill="#39393B" transform="translate(126.96484375,84.5390625)"/>
</svg>
